# xmcd CD database file
#
# Track frame offsets:
#	150
#	36364
#	70050
#	98985
#	151153
#	166744
#	207355
#	258311
#
# Disc length: 3631 seconds
#
# Revision: 0
# Processed by: cddbd v1.5.2PL0 Copyright (c) Steve Scherf et al.
# Submitted via: CDex 1.70beta2
#
DISCID=630e2d08
DTITLE=Maurice Magnoni/ Christy Doran/ Claude Jordan/ Hervé Provini - SskieS
DYEAR=1999
DGENRE=Jazz
TTITLE0=Up in the Sky
TTITLE1=Clouds
TTITLE2=Blues and Roots
TTITLE3=Estrella del Norte
TTITLE4=Sunship
TTITLE5=Whistle
TTITLE6=Turbulences
TTITLE7=Savane
EXTD=YEAR: 1999
EXTT0=
EXTT1=
EXTT2=
EXTT3=
EXTT4=
EXTT5=
EXTT6=
EXTT7=
PLAYORDER=
